<svg xmlns="http://www.w3.org/2000/svg" xmlns:xlink="http://www.w3.org/1999/xlink" width="1006" height="457" viewBox="0 0 1006 457">
  <defs>
    <clipPath id="clip-Mesa_de_trabajo_1">
      <rect width="1006" height="457"/>
    </clipPath>
  </defs>
  <g id="Mesa_de_trabajo_1" data-name="Mesa de trabajo – 1" clip-path="url(#clip-Mesa_de_trabajo_1)">
    <rect width="1006" height="457" fill="#fff"/>
    <g id="Grupo_5813" data-name="Grupo 5813" transform="translate(-132.587 -549.975)">
      <path id="Trazado_3941" data-name="Trazado 3941" d="M521.543,506.4H629.39v61.466a61.184,61.184,0,0,1-61.184,61.184H460.36V567.58A61.184,61.184,0,0,1,521.543,506.4Z" transform="translate(169.483 242.477)" fill="#2e3192"/>
      <g id="Grupo_4518" data-name="Grupo 4518" transform="translate(630.002 748.406)" opacity="0.7">
        <g id="Grupo_4517" data-name="Grupo 4517" opacity="0.6">
          <g id="Grupo_4513" data-name="Grupo 4513" transform="translate(27.779 56.892)">
            <g id="Grupo_4512" data-name="Grupo 4512">
              <path id="Trazado_3942" data-name="Trazado 3942" d="M631.388,566.856v4.582A61.18,61.18,0,0,1,570.2,632.614H490.3Q566.073,599.788,631.388,566.856Z" transform="translate(-490.296 -566.856)" fill="#594a42" opacity="0.8"/>
            </g>
          </g>
          <g id="Grupo_4516" data-name="Grupo 4516" opacity="0.7">
            <g id="Grupo_4514" data-name="Grupo 4514" transform="translate(0.014 47.018)">
              <path id="Trazado_3943" data-name="Trazado 3943" d="M629.4,556.276v14.456a61.18,61.18,0,0,1-61.185,61.176H488.311c-.364.159-.719.308-1.083.467H460.546V595.651Q543.952,577.424,629.4,556.276Z" transform="translate(-460.546 -556.276)" fill="#c2b59b" opacity="0.8"/>
            </g>
            <g id="Grupo_4515" data-name="Grupo 4515">
              <path id="Trazado_3944" data-name="Trazado 3944" d="M629.4,505.9V567.37a61.18,61.18,0,0,1-61.185,61.176H488.31c-.364.159-.719.308-1.083.467H460.545V567.081c0-1.195-.047-2.417.028-3.584v-.019q45.889-28.754,87.867-57.583H629.4Z" transform="translate(-460.531 -505.896)" fill="#fff" opacity="0.8"/>
            </g>
          </g>
        </g>
      </g>
      <path id="Trazado_3945" data-name="Trazado 3945" d="M330.664,845.531H155.778V745.856A99.218,99.218,0,0,1,255,646.638H429.883v99.675A99.218,99.218,0,0,1,330.664,845.531Z" transform="translate(18.087 66.063)" fill="#0e6b9e"/>
      <path id="Trazado_3946" data-name="Trazado 3946" d="M242.007,873.394h-86.23V922.54a48.92,48.92,0,0,0,48.92,48.92h86.23V922.314A48.919,48.919,0,0,0,242.007,873.394Z" transform="translate(817.247 -61.061)" fill="#0071bc"/>
      <path id="Trazado_3947" data-name="Trazado 3947" d="M199.99,444.595H301.632V386.179a47.139,47.139,0,0,0-47.139-47.139H152.851v58.415A47.139,47.139,0,0,0,199.99,444.595Z" transform="translate(190.003 253.645)" fill="#27aae1"/>
      <path id="Trazado_3948" data-name="Trazado 3948" d="M318.062,564.546V456.7h61.466a61.184,61.184,0,0,1,61.184,61.184V625.731H379.246A61.185,61.185,0,0,1,318.062,564.546Z" transform="translate(178.979 245.793)" fill="#0ac3cc"/>
      <path id="Trazado_3949" data-name="Trazado 3949" d="M460.36,771.013V646.638h70.886A70.561,70.561,0,0,1,601.808,717.2V841.575H530.922A70.561,70.561,0,0,1,460.36,771.013Z" transform="translate(358.004 56.73)" fill="#3fa9f5"/>
      <line id="Línea_190" data-name="Línea 190" y2="135.242" transform="translate(476.904 682.195)" fill="none" stroke="#27aae1" stroke-miterlimit="10" stroke-width="3"/>
      <g id="Grupo_4519" data-name="Grupo 4519" transform="translate(547.337 647.419)">
        <rect id="Rectángulo_1811" data-name="Rectángulo 1811" width="2.8" height="77.195" transform="translate(0 0)" fill="#0ac3cc"/>
      </g>
      <line id="Línea_191" data-name="Línea 191" x2="126.226" transform="translate(952.27 793.036)" fill="none" stroke="#3fa9f5" stroke-miterlimit="10" stroke-width="3"/>
      <circle id="Elipse_525" data-name="Elipse 525" cx="8.089" cy="8.089" r="8.089" transform="translate(1070.474 784.946)" fill="#3fa9f5"/>
      <g id="Grupo_4520" data-name="Grupo 4520" transform="translate(541.084 642.208)">
        <circle id="Elipse_526" data-name="Elipse 526" cx="8.089" cy="8.089" r="8.089" transform="translate(0 0)" fill="#0ac3cc"/>
      </g>
      <circle id="Elipse_527" data-name="Elipse 527" cx="8.089" cy="8.089" r="8.089" transform="translate(468.444 809.789)" fill="#27aae1"/>
      <g id="Grupo_4521" data-name="Grupo 4521" transform="translate(1091.687 902.805)">
        <line id="Línea_192" data-name="Línea 192" x1="0.343" y2="79.019" transform="translate(6.782)" fill="none" stroke="#0d71ba" stroke-miterlimit="10" stroke-width="3"/>
        <circle id="Elipse_528" data-name="Elipse 528" cx="8.089" cy="8.089" r="8.089" transform="translate(0 66.008)" fill="#0071bc"/>
      </g>
      <g id="Grupo_4529" data-name="Grupo 4529" transform="translate(173.587 712.701)" opacity="0.7">
        <g id="Grupo_4528" data-name="Grupo 4528" transform="translate(0 0)" opacity="0.6">
          <g id="Grupo_4524" data-name="Grupo 4524" transform="translate(0 59.833)">
            <g id="Grupo_4522" data-name="Grupo 4522" transform="translate(170.49 131.917)">
              <path id="Trazado_3950" data-name="Trazado 3950" d="M379.347,852.1a98.925,98.925,0,0,1-36.547,6.757h-4.638Q358.7,855.523,379.347,852.1Z" transform="translate(-338.162 -852.098)" fill="#c49a6c" opacity="0.8"/>
            </g>
            <g id="Grupo_4523" data-name="Grupo 4523">
              <path id="Trazado_3951" data-name="Trazado 3951" d="M429.825,710.749V750.59a98.825,98.825,0,0,1-9.193,41.754c-.523,1.129-1.064,2.24-1.624,3.341-.336.663-.681,1.316-1.036,1.969-.345.635-.691,1.26-1.045,1.876-.261.467-.523.924-.793,1.372-.084.149-.177.308-.28.467v.019q-1.19,1.988-2.464,3.91c-.728,1.1-1.475,2.174-2.249,3.238-.308.439-.625.868-.943,1.3q-2.128,2.856-4.461,5.544c-.327.392-.663.775-1.008,1.157-.14.168-.289.327-.448.495-.317.364-.644.719-.98,1.073-.14.159-.289.317-.439.476-.345.364-.691.728-1.036,1.083-.607.625-1.213,1.241-1.839,1.848-.495.485-1,.961-1.5,1.437-.392.373-.793.747-1.195,1.1q-.42.392-.84.756c-1.3,1.148-2.622,2.277-3.985,3.36-.345.28-.7.56-1.055.831-.429.336-.868.672-1.307,1-.495.373-.989.737-1.493,1.092q-.84.616-1.708,1.2a.335.335,0,0,1-.093.065c-.569.392-1.139.784-1.717,1.157-.486.327-.98.644-1.475.952-.4.261-.8.513-1.2.747-.98.607-1.969,1.195-2.977,1.764-.56.317-1.129.635-1.708.943a98.049,98.049,0,0,1-9.753,4.61l-.821.14a98.925,98.925,0,0,1-36.547,6.757H155.481V838.084c.084-.037.159-.065.243-.1C257.581,795.732,348.6,753,429.825,710.749Z" transform="translate(-155.481 -710.749)" fill="#594a42" opacity="0.8"/>
            </g>
          </g>
          <g id="Grupo_4527" data-name="Grupo 4527" opacity="0.7">
            <g id="Grupo_4525" data-name="Grupo 4525" transform="translate(0 58.077)">
              <path id="Trazado_3952" data-name="Trazado 3952" d="M429.862,708.868V710.6c-.009.009-.028.009-.037.019v39.841a98.825,98.825,0,0,1-9.193,41.754c-.523,1.129-1.064,2.24-1.624,3.341-.336.663-.681,1.316-1.036,1.969-.345.635-.691,1.26-1.045,1.876-.261.467-.523.924-.793,1.372-.093.168-.187.327-.28.485q-1.19,1.988-2.464,3.91c-.728,1.1-1.475,2.174-2.249,3.238-.308.439-.625.868-.943,1.3q-2.128,2.856-4.461,5.544c-.327.392-.663.775-1.008,1.157-.14.168-.289.327-.448.495-.317.364-.644.719-.98,1.073-.14.159-.289.317-.439.476-.345.364-.691.728-1.036,1.083-.607.625-1.213,1.241-1.839,1.848-.495.485-1,.961-1.5,1.437-.392.373-.793.737-1.195,1.1q-.406.378-.84.756c-1.3,1.148-2.622,2.277-3.985,3.36-.345.28-.7.56-1.055.831-.429.336-.868.672-1.307,1-.495.373-.989.737-1.493,1.092q-.84.616-1.708,1.2a.337.337,0,0,1-.093.065c-.569.392-1.139.784-1.717,1.157-.486.327-.98.644-1.475.952-.4.261-.8.513-1.2.747-.98.607-1.969,1.195-2.977,1.764-.56.317-1.129.635-1.708.943a98.019,98.019,0,0,1-9.753,4.61l-.821.14a98.925,98.925,0,0,1-36.547,6.757H155.481V773.245l.243-.056q134.895-29.1,274.1-64.312C429.834,708.877,429.854,708.868,429.862,708.868Z" transform="translate(-155.481 -708.868)" fill="#c2b59b" opacity="0.8"/>
            </g>
            <g id="Grupo_4526" data-name="Grupo 4526" transform="translate(0)">
              <path id="Trazado_3953" data-name="Trazado 3953" d="M429.862,704.715v1.736c-.009.009-.028.009-.037.019v39.841a98.825,98.825,0,0,1-9.193,41.754c-.523,1.129-1.064,2.24-1.624,3.341-.336.663-.681,1.316-1.036,1.969-.345.635-.691,1.26-1.045,1.876-.261.467-.523.924-.793,1.372-.093.168-.187.327-.28.485-.336.569-.681,1.129-1.045,1.689-.457.747-.933,1.493-1.419,2.221-.728,1.1-1.475,2.174-2.249,3.238-.308.439-.625.868-.943,1.3q-2.128,2.856-4.461,5.544c-.327.392-.663.775-1.008,1.157-.14.168-.289.327-.448.495-.317.364-.644.719-.98,1.073-.14.159-.289.317-.439.476-.345.364-.691.728-1.036,1.083-.607.625-1.213,1.241-1.839,1.848-.495.485-1,.961-1.5,1.437-.392.373-.793.737-1.195,1.1q-.406.378-.84.756c-1.3,1.148-2.622,2.277-3.985,3.36-.345.28-.7.56-1.055.831-.429.336-.868.672-1.307,1-.495.373-.989.737-1.493,1.092q-.84.616-1.708,1.2a.337.337,0,0,1-.093.065c-.569.392-1.139.784-1.717,1.157-.486.327-.98.644-1.475.952-.4.261-.8.513-1.2.747-.98.607-1.969,1.195-2.977,1.764-.56.317-1.129.635-1.708.943a98.022,98.022,0,0,1-9.753,4.61l-.821.14a98.925,98.925,0,0,1-36.547,6.757H155.481V745.854c0-1.437.14-3,.215-4.424.047-.028.084-.056.131-.084q76.687-47.261,144.9-94.708h129.1v58.087C429.834,704.725,429.854,704.715,429.862,704.715Z" transform="translate(-155.481 -646.638)" fill="#fff" opacity="0.8"/>
            </g>
          </g>
        </g>
      </g>
      <g id="Grupo_4534" data-name="Grupo 4534" transform="translate(217.358 718.997)">
        <g id="Grupo_4530" data-name="Grupo 4530" transform="translate(57.762)">
          <path id="Trazado_3954" data-name="Trazado 3954" d="M312.56,682.393H289.01s-22.475-1.1-22.475,15.953v21.4h21.659V709.055s-1.567-8.8,10.727-8.8h13.638V682.393Z" transform="translate(-264.425 -655.319)" fill="#fff"/>
          <path id="Trazado_3955" data-name="Trazado 3955" d="M264.274,721.582a2.58,2.58,0,0,0,2.577,2.576h20.228a2.579,2.579,0,0,0,2.574-2.576v-.4a2.577,2.577,0,0,0-2.574-2.577H266.851a2.578,2.578,0,0,0-2.577,2.577Z" transform="translate(-264.274 -657.736)" fill="#fff"/>
          <path id="Trazado_3956" data-name="Trazado 3956" d="M310.621,682.628a9.522,9.522,0,0,1,9.522-9.517H334.68a9.515,9.515,0,0,1,9.512,9.517v18.325a9.518,9.518,0,0,1-9.512,9.517H320.143a9.525,9.525,0,0,1-9.522-9.517Z" transform="translate(-267.367 -654.7)" fill="#fff"/>
          <rect id="Rectángulo_1812" data-name="Rectángulo 1812" width="97.608" height="23.822" transform="translate(75.203 24.368)" fill="#fff"/>
          <path id="Trazado_3957" data-name="Trazado 3957" d="M322.229,673.147a6.228,6.228,0,0,0,6.227,6.228h0a6.227,6.227,0,0,0,6.223-6.228V659.613a6.225,6.225,0,0,0-6.223-6.229h0a6.225,6.225,0,0,0-6.227,6.229Z" transform="translate(-268.141 -653.384)" fill="#fff"/>
          <path id="Trazado_3958" data-name="Trazado 3958" d="M292.641,656.906a3.524,3.524,0,0,0,3.519,3.519h57.934a3.522,3.522,0,0,0,3.521-3.519h0a3.523,3.523,0,0,0-3.521-3.522H296.16a3.523,3.523,0,0,0-3.519,3.522Z" transform="translate(-266.167 -653.384)" fill="#fff"/>
        </g>
        <g id="Grupo_4533" data-name="Grupo 4533" transform="translate(0 56.677)">
          <g id="Grupo_4531" data-name="Grupo 4531" transform="translate(0 76.906)">
            <path id="Trazado_3959" data-name="Trazado 3959" d="M333.346,811.433c4.377-8.69-37.41-15.564-75.714-14.135-48.494,1.573-69.083,13.684-42.266,22.07,9.882,3.313,24.547,5.258,40.971,6.6,40.1,2.15,81.75-3.5,90.547-11.834a5.928,5.928,0,0,0-2.672,1.476c.1-1.156,4.429-2.077,3.244-3.072-3.918,5.819-22.6,10.842-47.418,13.218-22.232,2.063-49.67.587-69.752-2.57-20.9-3.436-29.751-8.775-27.587-14,4.119-8.119,38.971-13.675,77.887-12.515,43.964,1.658,68.467,12.24,47,19.9-19.256,6.613-67.643,7.039-90.8.469-12-3.425-11.588-8.036-2.369-11.485,15.291-4.973,49.366-6.625,71.449-2.2,14.571,3.1,20.949,7.615,9.985,11.665-12.712,4.651-42.466,5.374-63.368,1.939,16.318,2.5,37.42,3.63,54.612,1.073,13.34-2.076,20.44-5.629,18.642-9.2-2.983-4.569-18.38-7.938-39.024-9.505-26.145-1.629-50.592,1.46-67.069,5.447,6.019-5.7,39.279-7.634,64.242-6.989,24.5,1.079,40.261,5.172,48.005,9.824A4.714,4.714,0,0,1,333.346,811.433Z" transform="translate(-202.381 -796.518)" fill="#fff"/>
          </g>
          <g id="Grupo_4532" data-name="Grupo 4532" transform="translate(37.639)">
            <path id="Trazado_3960" data-name="Trazado 3960" d="M253.228,751.611c13.739-18.14,21.043-32.485,22.937-36.414l.045-1.083s.078.175.234.5c.156-.328.233-.5.233-.5l.041,1.083c1.937,4,9.461,18.777,23.663,37.369a33.548,33.548,0,0,1,4.447,5.664c.249.3.485.6.729.907l-.123.1a33.61,33.61,0,1,1-52.206-7.624Z" transform="translate(-242.712 -714.113)" fill="#fff"/>
          </g>
        </g>
      </g>
      <g id="Grupo_4541" data-name="Grupo 4541" transform="translate(818.363 717.363)" opacity="0.7">
        <g id="Grupo_4540" data-name="Grupo 4540" opacity="0.6">
          <g id="Grupo_4536" data-name="Grupo 4536" transform="translate(22.785 108.474)">
            <g id="Grupo_4535" data-name="Grupo 4535">
              <path id="Trazado_3961" data-name="Trazado 3961" d="M603.3,777.863v72.468H532.408a70.323,70.323,0,0,1-47.634-18.5c.028-.009.047-.02.075-.028q61.834-26.85,118.068-53.756C603.047,777.984,603.169,777.928,603.3,777.863Z" transform="translate(-484.774 -777.863)" fill="#594a42" opacity="0.8"/>
            </g>
          </g>
          <g id="Grupo_4539" data-name="Grupo 4539" opacity="0.7">
            <g id="Grupo_4537" data-name="Grupo 4537" transform="translate(0.07 82.174)">
              <path id="Trazado_3962" data-name="Trazado 3962" d="M601.675,749.683v98.768H530.784a70.323,70.323,0,0,1-47.634-18.5c.028-.009.047-.02.075-.028-.028-.019-.047-.047-.075-.065a70.195,70.195,0,0,1-22.716-47.653q69.854-15.4,140.858-32.431C601.423,749.748,601.544,749.711,601.675,749.683Z" transform="translate(-460.434 -749.683)" fill="#c2b59b" opacity="0.8"/>
            </g>
            <g id="Grupo_4538" data-name="Grupo 4538">
              <path id="Trazado_3963" data-name="Trazado 3963" d="M601.67,718.2V842.575H530.779a70.323,70.323,0,0,1-47.634-18.5c.028-.009.047-.02.075-.028-.028-.019-.047-.047-.075-.065a70.195,70.195,0,0,1-22.716-47.653V776.3c-.094-1.437-.065-2.837-.065-4.293V734.372q57.354-36.342,109.753-72.739H573.3c.477.355.944.709,1.4,1.083A70.4,70.4,0,0,1,601.67,718.2Z" transform="translate(-460.359 -661.633)" fill="#fff" opacity="0.8"/>
            </g>
          </g>
        </g>
      </g>
      <g id="Grupo_4542" data-name="Grupo 4542" transform="translate(827.339 749.728)">
        <path id="Trazado_3964" data-name="Trazado 3964" d="M508.917,786.275c11.271,1.318,22.952,5.59,41.63,9.181a32.188,32.188,0,0,1-41.63-9.181Z" transform="translate(-472.575 -702.316)" fill="#fff"/>
        <path id="Trazado_3965" data-name="Trazado 3965" d="M566.447,757.046a30.012,30.012,0,0,1-6.433,19.4c-11.407-3-24.269-8.065-39.4-10.246a60.818,60.818,0,0,0-16.952-.17,29.21,29.21,0,0,1-1.364-8.978c0-11.516,7.158-19.978,13.169-29.112,4.864-7.391,9.569-14.893,14-22.554,1.727-2.989,3.456-5.993,5.011-9.077-.448.888,3.675,6.75,4.115,7.522,4.121,7.231,8.5,14.313,13.029,21.3,5.043,7.783,10.878,15.352,13.584,24.355A29.623,29.623,0,0,1,566.447,757.046Z" transform="translate(-472.134 -696.313)" fill="#fff"/>
        <path id="Trazado_3966" data-name="Trazado 3966" d="M469.977,787.376s14.391-18.28,41.616-14.391,45.505,19.058,62.23,3.89c0,0-2.722,17.891-35.393,12.057S498.37,774.152,469.977,787.376Z" transform="translate(-469.977 -701.393)" fill="#fff"/>
      </g>
      <g id="Grupo_4544" data-name="Grupo 4544" transform="translate(666.817 771.48)">
        <g id="Grupo_4543" data-name="Grupo 4543" transform="translate(0)">
          <path id="Trazado_3967" data-name="Trazado 3967" d="M523.919,571.759c0-7.092,11.52-23.508,14.941-28.6,0-.145-.011-.3-.022-.455-.16-2.362-1.288-3.533-3.847-2.2a12.978,12.978,0,0,0,.479-4.827c-.372-1.9-3.681-2.733-4.524-.781,0,0,.421-3.583-2.351-4.2s-4.637,2.619-5.331,4.672l-1.067,3.15.106-1.2s.995-2.978-1.172-4.039-4.939.119-7.391,8.439-3.127,11.193-3.127,11.193l-1.848,9.962s-1.067-4.929-.427-7.393,1.991-6.3-.355-8.421c0,0-3.482-3.7-4.691.617s-2.487,5.443-3.127,8.729.426,12.426,2.345,17.355,7.462,10.2,7.462,16.225-3.7,16.021-3.7,16.021h24.836s-.743-10.818,3.912-19.512c0,0,.03-.048.073-.12A15.387,15.387,0,0,1,523.919,571.759Z" transform="translate(-499.978 -530.62)" fill="#fff"/>
          <path id="Trazado_3968" data-name="Trazado 3968" d="M581.831,556.405c-.64-3.286-1.919-4.415-3.127-8.729s-4.691-.617-4.691-.617c-2.345,2.122-.995,5.957-.356,8.421s-.426,7.393-.426,7.393l-1.848-9.962s-.675-2.875-3.127-11.193-5.224-9.5-7.391-8.439-1.173,4.039-1.173,4.039l.106,1.2-1.066-3.15c-.693-2.054-2.559-5.289-5.331-4.672s-2.351,4.2-2.351,4.2c-.844-1.951-4.152-1.118-4.525.781A12.991,12.991,0,0,0,547,540.5c-2.514-1.311-3.645-.2-3.836,2.078,2.717,4.29,15.393,21.791,15.393,29.175a15.4,15.4,0,0,1-11.6,14.73l0,.007c4.655,8.694,3.912,19.512,3.912,19.512h24.837s-3.7-10-3.7-16.021,5.544-11.3,7.462-16.225S582.47,559.691,581.831,556.405Z" transform="translate(-502.86 -530.62)" fill="#fff"/>
          <path id="Trazado_3969" data-name="Trazado 3969" d="M551.688,566.137s4.029,15.526-4.977,17.81C546.71,583.947,561.169,583.261,551.688,566.137Z" transform="translate(-503.096 -532.99)" fill="#fff"/>
        </g>
      </g>
      <g id="Grupo_4551" data-name="Grupo 4551" transform="translate(342.742 592.686)" opacity="0.32">
        <g id="Grupo_4550" data-name="Grupo 4550" opacity="0.6">
          <g id="Grupo_4546" data-name="Grupo 4546" transform="translate(25.124 42.006)">
            <g id="Grupo_4545" data-name="Grupo 4545">
              <path id="Trazado_3970" data-name="Trazado 3970" d="M303.42,389.185V447.6H201.787a46.815,46.815,0,0,1-22.137-5.516c45.1-19.309,86.159-38.75,123.49-58.031A46.889,46.889,0,0,1,303.42,389.185Z" transform="translate(-179.65 -384.052)" fill="#594a42" opacity="0.8"/>
            </g>
          </g>
          <g id="Grupo_4549" data-name="Grupo 4549" opacity="0.7">
            <g id="Grupo_4547" data-name="Grupo 4547" transform="translate(2.716 39.869)">
              <path id="Trazado_3971" data-name="Trazado 3971" d="M301.818,389.032v58.413H200.185a46.815,46.815,0,0,1-22.137-5.516.28.28,0,0,0-.075.037,47.369,47.369,0,0,1-22.324-26.1c0-.009-.009-.028-.009-.037h.009q71.675-15.455,145.59-34.055c.009-.009.009-.009.019-.009.028.168.056.336.075.5.084.541.149,1.083.205,1.633A46.882,46.882,0,0,1,301.818,389.032Z" transform="translate(-155.64 -381.762)" fill="#c2b59b" opacity="0.8"/>
            </g>
            <g id="Grupo_4548" data-name="Grupo 4548">
              <path id="Trazado_3972" data-name="Trazado 3972" d="M301.624,386.181v58.413H199.991a46.815,46.815,0,0,1-22.137-5.516.28.28,0,0,0-.075.037,47.369,47.369,0,0,1-22.324-26.1c0-.009-.009-.028-.009-.037a47,47,0,0,1-2.716-13.411c.056-.028.1-.065.159-.093q48.927-30.028,91.6-60.177c.121-.084.233-.168.355-.252h9.641a47.139,47.139,0,0,1,46.579,39.869c.028.168.056.336.075.5.084.541.149,1.083.205,1.633A46.882,46.882,0,0,1,301.624,386.181Z" transform="translate(-152.73 -339.042)" fill="#fff" opacity="0.8"/>
            </g>
          </g>
        </g>
      </g>
      <g id="Grupo_4559" data-name="Grupo 4559" transform="translate(497.46 708.155)" opacity="0.7">
        <g id="Grupo_4558" data-name="Grupo 4558" transform="translate(0)" opacity="0.6">
          <g id="Grupo_4554" data-name="Grupo 4554" transform="translate(9.249 82.921)">
            <g id="Grupo_4552" data-name="Grupo 4552" transform="translate(85.114 75.445)">
              <path id="Trazado_3973" data-name="Trazado 3973" d="M447.488,632.457v4.536H419.621Q433.523,634.751,447.488,632.457Z" transform="translate(-419.621 -632.457)" fill="#c49a6c" opacity="0.8"/>
            </g>
            <g id="Grupo_4553" data-name="Grupo 4553">
              <path id="Trazado_3974" data-name="Trazado 3974" d="M441.4,551.617V631.6H413.535c-.971.159-1.941.317-2.912.467h-30.7A60.99,60.99,0,0,1,328.58,603.6c-.056-.084-.1-.168-.159-.252Q388.17,577.532,441.4,551.617Z" transform="translate(-328.421 -551.617)" fill="#594a42" opacity="0.8"/>
            </g>
          </g>
          <g id="Grupo_4557" data-name="Grupo 4557" opacity="0.7">
            <g id="Grupo_4555" data-name="Grupo 4555" transform="translate(0 65.412)">
              <path id="Trazado_3975" data-name="Trazado 3975" d="M440.741,532.856v97.489H412.874c-.971.159-1.941.317-2.912.467h-30.7a60.99,60.99,0,0,1-51.348-28.465c-.056-.084-.1-.168-.159-.252a61.637,61.637,0,0,1-9.249-32.935v-7.979Q379.086,547.8,440.741,532.856Z" transform="translate(-318.511 -532.856)" fill="#c2b59b" opacity="0.8"/>
            </g>
            <g id="Grupo_4556" data-name="Grupo 4556">
              <path id="Trazado_3976" data-name="Trazado 3976" d="M440.741,517.83V625.669H412.874c-.971.159-1.941.317-2.912.467h-30.7a60.99,60.99,0,0,1-51.348-28.465c-.056-.084-.1-.168-.159-.252a61.637,61.637,0,0,1-9.249-32.935V521.2Q364.4,492,406.248,462.767A61.171,61.171,0,0,1,440.741,517.83Z" transform="translate(-318.511 -462.767)" fill="#fff" opacity="0.8"/>
            </g>
          </g>
        </g>
      </g>
      <g id="Grupo_4567" data-name="Grupo 4567" transform="translate(514.812 721.502)">
        <path id="Trazado_3977" data-name="Trazado 3977" d="M429.09,561.924a45.713,45.713,0,0,1-5.839,22.411c-.273.484-.55.964-.84,1.435a45.975,45.975,0,0,1-78.575.091c-.194-.323-.389-.645-.579-.972a45.718,45.718,0,0,1-6.154-22.964c0-13.457,7.1-24.243,14.044-33.018,17.216-22.741,26.368-40.69,28.762-45.652l3.184-6.187,3.189,6.187c2.394,4.962,11.543,22.911,28.758,45.652C421.994,537.681,429.09,548.467,429.09,561.924Z" transform="translate(-337.104 -477.068)" fill="#f9f9f9"/>
        <g id="Grupo_4566" data-name="Grupo 4566" transform="translate(6.154 52.608)">
          <g id="Grupo_4564" data-name="Grupo 4564" transform="translate(0 10.664)">
            <g id="Grupo_4563" data-name="Grupo 4563">
              <g id="Grupo_4561" data-name="Grupo 4561" transform="translate(1.495)">
                <path id="Trazado_3978" data-name="Trazado 3978" d="M384.687,544.865v43.009h19.851V544.865Zm11.166,1.654h6.2v9.512h-6.2Zm0,11.579h6.2v9.512h-6.2Zm0,11.993h6.2V579.6h-6.2Zm-8.685-23.573h6.2v9.512h-6.2Zm0,11.579h6.2v9.512h-6.2Zm6.2,11.993V579.6h-6.2v-9.512Z" transform="translate(-347.928 -544.865)" fill="#0ac3cc"/>
                <path id="Trazado_3979" data-name="Trazado 3979" d="M407.729,561.7V589h11.993V561.7Zm6.617,1.241h4.135v5.79h-4.135Zm0,7.444h4.135v5.79h-4.135Zm0,7.444h4.135v5.79h-4.135Zm-5.377-14.887H413.1v5.79h-4.135Zm0,7.444H413.1v5.79h-4.135Zm0,7.444H413.1v5.79h-4.135Z" transform="translate(-349.466 -545.989)" fill="#0ac3cc"/>
                <g id="Grupo_4560" data-name="Grupo 4560" transform="translate(0 7.716)">
                  <path id="Trazado_3980" data-name="Trazado 3980" d="M345.3,570.23l20.631-17.1,20.63,17.1Z" transform="translate(-345.3 -553.133)" fill="#0ac3cc"/>
                  <path id="Trazado_3981" data-name="Trazado 3981" d="M352.338,567.464v21.918h28.121V567.464Zm22.332,21.091h-7.444V574.908h7.444Z" transform="translate(-345.77 -554.089)" fill="#0ac3cc"/>
                  <rect id="Rectángulo_1813" data-name="Rectángulo 1813" width="2.895" height="5.79" transform="translate(9.051 4.69)" fill="#0ac3cc"/>
                </g>
              </g>
              <g id="Grupo_4562" data-name="Grupo 4562" transform="translate(0 38.316)">
                <path id="Trazado_3982" data-name="Trazado 3982" d="M423.691,591.6c-.273.484-.55.964-.84,1.435-12.216-.575-25.073-.881-38.353-.881-13.962,0-27.456.34-40.222.972-.194-.323-.389-.645-.579-.972,2.51-.9,5.207-1.712,8.064-2.436a118.276,118.276,0,0,1,14.888-2.734q3.629-.447,7.444-.711,2.854-.192,5.79-.281c.687-.021,1.378-.037,2.068-.046.844-.017,1.7-.024,2.547-.024a147.881,147.881,0,0,1,17.3,1c.554.062,1.109.133,1.654.207a120.437,120.437,0,0,1,11.993,2.155C418.357,589.96,421.111,590.739,423.691,591.6Z" transform="translate(-343.698 -585.921)" fill="#0ac3cc"/>
              </g>
            </g>
          </g>
          <g id="Grupo_4565" data-name="Grupo 4565" transform="translate(0.982)">
            <path id="Trazado_3983" data-name="Trazado 3983" d="M353.443,555.625s-6.327.85-8.693-7.145c0,0,8.37-2.053,9.17,6.329,0,0-3.714-2.046-4.9-3.533C349.022,551.275,351.42,554.873,353.443,555.625Z" transform="translate(-344.75 -534.427)" fill="#0ac3cc"/>
            <path id="Trazado_3984" data-name="Trazado 3984" d="M356.664,553.3s-6.111-9.973,5.535-19.861c0,0,9.641,12.5-3.811,20.051,0,0,.678-7.734,2.291-10.823C360.68,542.666,356.428,549.353,356.664,553.3Z" transform="translate(-345.438 -533.438)" fill="#0ac3cc"/>
          </g>
        </g>
      </g>
      <g id="Grupo_4568" data-name="Grupo 4568" transform="translate(376.75 607.106)">
        <path id="Trazado_3985" data-name="Trazado 3985" d="M253.082,375.648a8.345,8.345,0,0,0-.965.059A12.645,12.645,0,0,0,244,369.335a18.078,18.078,0,0,0-34.192-4.357,14.293,14.293,0,0,0-11.657,10.678,1.686,1.686,0,0,0-.182-.009,8.789,8.789,0,1,0,5.946,15.241,14.255,14.255,0,0,0,17.4-.918.219.219,0,0,0,.069.024,12.027,12.027,0,0,0,14.295,3.163,12.641,12.641,0,0,0,12.688-1.313,8.784,8.784,0,1,0,4.716-16.2Z" transform="translate(-189.17 -354.493)" fill="#fff"/>
        <path id="Trazado_3986" data-name="Trazado 3986" d="M216.151,408.306a3.934,3.934,0,1,0,7.391-1.882h.006l-3.45-5.982-3.246,5.632A3.889,3.889,0,0,0,216.151,408.306Z" transform="translate(-190.97 -357.559)" fill="#fff"/>
        <path id="Trazado_3987" data-name="Trazado 3987" d="M203.2,408.306a3.934,3.934,0,1,0,7.386-1.882h.01l-3.456-5.982-3.244,5.632A3.956,3.956,0,0,0,203.2,408.306Z" transform="translate(-190.106 -357.559)" fill="#fff"/>
        <path id="Trazado_3988" data-name="Trazado 3988" d="M216.151,424.859a3.934,3.934,0,1,0,7.391-1.877h.006l-3.45-5.987-3.246,5.634A3.879,3.879,0,0,0,216.151,424.859Z" transform="translate(-190.97 -358.664)" fill="#fff"/>
        <path id="Trazado_3989" data-name="Trazado 3989" d="M244.7,408.306a3.935,3.935,0,1,0,7.869,0,3.973,3.973,0,0,0-.476-1.882h.008l-3.455-5.982-3.251,5.632A3.9,3.9,0,0,0,244.7,408.306Z" transform="translate(-192.876 -357.559)" fill="#fff"/>
        <path id="Trazado_3990" data-name="Trazado 3990" d="M231.5,408.306a3.936,3.936,0,1,0,7.394-1.882h.013l-3.456-5.982-3.243,5.632A3.9,3.9,0,0,0,231.5,408.306Z" transform="translate(-191.995 -357.559)" fill="#fff"/>
        <path id="Trazado_3991" data-name="Trazado 3991" d="M231.5,424.859a3.936,3.936,0,1,0,7.394-1.877h.013l-3.456-5.987-3.243,5.634A3.885,3.885,0,0,0,231.5,424.859Z" transform="translate(-191.995 -358.664)" fill="#fff"/>
        <path id="Trazado_3992" data-name="Trazado 3992" d="M231.5,441.567a3.936,3.936,0,1,0,7.394-1.877h.013L235.45,433.7l-3.243,5.634A3.889,3.889,0,0,0,231.5,441.567Z" transform="translate(-191.995 -359.779)" fill="#fff"/>
      </g>
      <g id="Grupo_4575" data-name="Grupo 4575" transform="translate(974.409 812.863)" opacity="0.7">
        <g id="Grupo_4574" data-name="Grupo 4574" transform="translate(0 0)" opacity="0.6">
          <g id="Grupo_4570" data-name="Grupo 4570" transform="translate(32.077 47.326)">
            <g id="Grupo_4569" data-name="Grupo 4569">
              <path id="Trazado_3993" data-name="Trazado 3993" d="M293.321,925.736v49.146H207.087a48.859,48.859,0,0,1-15.455-2.492c.037-.019.065-.027.1-.047q54.918-23.8,101.53-47.653c.009-.009.028-.009.037-.019C293.321,925.027,293.321,925.381,293.321,925.736Z" transform="translate(-191.632 -924.672)" fill="#594a42" opacity="0.8"/>
            </g>
          </g>
          <g id="Grupo_4573" data-name="Grupo 4573" opacity="0.7">
            <g id="Grupo_4571" data-name="Grupo 4571" transform="translate(5.125 43.061)">
              <path id="Trazado_3994" data-name="Trazado 3994" d="M291.394,925.431v49.146H205.16a48.859,48.859,0,0,1-15.455-2.492c.037-.019.065-.027.1-.047l-.1-.028a49.02,49.02,0,0,1-26.953-21.988Q226.014,936.345,291.1,920.1c.047.373.075.747.112,1.12.084,1.036.14,2.091.159,3.145C291.394,924.722,291.394,925.076,291.394,925.431Z" transform="translate(-162.752 -920.102)" fill="#c2b59b" opacity="0.8"/>
            </g>
            <g id="Grupo_4572" data-name="Grupo 4572">
              <path id="Trazado_3995" data-name="Trazado 3995" d="M291.027,922.352V971.5H204.793a48.859,48.859,0,0,1-15.455-2.492c.037-.019.065-.027.1-.047l-.1-.028a49.02,49.02,0,0,1-26.953-21.988.066.066,0,0,0-.02-.037,48.8,48.8,0,0,1-5.1-12.235.628.628,0,0,1,.1-.065q49.3-30.266,91.992-60.644a48.9,48.9,0,0,1,39.216,33.056c.112.317.215.644.308.961.2.644.383,1.288.56,1.941.187.719.355,1.447.513,2.184.271,1.251.485,2.529.644,3.826.056.355.1.709.14,1.073v.019c.047.373.075.747.112,1.12.056.691.1,1.391.121,2.091.019.345.028.7.037,1.055S291.027,922,291.027,922.352Z" transform="translate(-157.261 -873.962)" fill="#fff" opacity="0.8"/>
            </g>
          </g>
        </g>
      </g>
      <g id="Grupo_4577" data-name="Grupo 4577" transform="translate(1002.817 824.825)">
        <g id="Grupo_4576" data-name="Grupo 4576" transform="translate(0 0)">
          <path id="Trazado_3996" data-name="Trazado 3996" d="M200.659,941.125a15.817,15.817,0,0,1-6.72-1.276A8.19,8.19,0,0,1,190.271,937c.189.328.427.748.718,1.263q.661,1.176,1.784,3.14t2.361,4.161q1.239,2.194,1.784,3.252a8.609,8.609,0,0,1,.39.837q.932,1.975,1.747,3.53t1.86,3.222a14.059,14.059,0,0,0,2.159,2.723,3.151,3.151,0,0,0,2.107,1.048l19.894-.186-.181-19.086Z" transform="translate(-187.872 -890.13)" fill="#fff"/>
          <path id="Trazado_3997" data-name="Trazado 3997" d="M194.055,936.89a13.909,13.909,0,0,0,6.953,1.651l5.414-.051a7.728,7.728,0,0,1-1.419-.862,2.177,2.177,0,0,1-.9-1.861,3.4,3.4,0,0,1,.519-1.683,6.858,6.858,0,0,1,.828-1.189c.4-.483.815-.971,1.24-1.458s.805-.9,1.131-1.23.566-.577.72-.732l5.133,2.924-8.223-15.472-17.755.544,5.442,3.228a4.591,4.591,0,0,0-.714.732,12.1,12.1,0,0,0-1.168,1.726,12.779,12.779,0,0,0-1.155,2.716,12.927,12.927,0,0,0-.289,5.531,10.063,10.063,0,0,0,.549,1.822Q190.992,935.207,194.055,936.89Z" transform="translate(-187.7 -888.79)" fill="#fff"/>
          <path id="Trazado_3998" data-name="Trazado 3998" d="M190.253,936.965c-.1-.17-.182-.316-.253-.437Q190.116,936.752,190.253,936.965Z" transform="translate(-187.853 -890.098)" fill="#fff"/>
          <path id="Trazado_3999" data-name="Trazado 3999" d="M247.19,910.327l7.392-16.61-5.383,3.176c-.158-.3-.413-.757-.776-1.364s-.841-1.388-1.433-2.348-1.109-1.831-1.547-2.615-.711-1.278-.815-1.482q-.931-1.592-4.4-1.976a99.643,99.643,0,0,0-10.863-.318q-7.32.067-9.908.132a36.1,36.1,0,0,0-4.263.305,13.5,13.5,0,0,1,1.868.173,15.683,15.683,0,0,1,3.13.886,13.311,13.311,0,0,1,3.8,2.328,15.453,15.453,0,0,1,3.394,4.2l6.506,10.992-5.078,3.018Z" transform="translate(-189.535 -886.779)" fill="#fff"/>
          <path id="Trazado_4000" data-name="Trazado 4000" d="M265.541,923.9q-1.242-2.314-3.8-7.092-1.242-2.273-2.1-3.869c-.568-1.06-.927-1.72-1.084-1.972l-15.615,9.447q.771,1.21,5.22,8.067t5.8,8.978a19.95,19.95,0,0,0,1.43,2.12,11.582,11.582,0,0,0,4.716-1.186,15.673,15.673,0,0,0,3.672-2.436,20.739,20.739,0,0,0,2.264-2.345,6.283,6.283,0,0,0,1.673-4.742,3.6,3.6,0,0,0-.395-1.75Q266.78,926.211,265.541,923.9Z" transform="translate(-191.387 -888.392)" fill="#fff"/>
          <path id="Trazado_4001" data-name="Trazado 4001" d="M225.539,895.6a13.943,13.943,0,0,0-3.275-4.063,13.436,13.436,0,0,0-3.757-2.258,15.218,15.218,0,0,0-3.17-.888,14.774,14.774,0,0,0-2.06-.172,14.626,14.626,0,0,0-3,.869,3.318,3.318,0,0,0-1.552,1.391q-.3.463-1.05,1.769t-1.951,3.267q-1.2,1.964-2.742,4.5t-1.912,3.154q-1.876,3.08-2.1,3.463l15.479,8.572,12.027-18.085c-.21-.354-.441-.734-.7-1.14Z" transform="translate(-188.452 -886.874)" fill="#fff"/>
          <path id="Trazado_4002" data-name="Trazado 4002" d="M263.671,938.483a15.961,15.961,0,0,1-3.674,2.4,11.761,11.761,0,0,1-4.753,1.152q-.23,0-13.415.124l.021-5.946-9.312,14.9,9.44,15.029-.058-6.25,9.068-.085a4.357,4.357,0,0,0,2.81-1.173,14.769,14.769,0,0,0,2.638-3.081,38.434,38.434,0,0,0,2.327-4q1.049-2.07,2.692-5.6.671-1.38,1.272-2.688.3-.538,1.05-1.919,1.2-2.069,1.947-3.525a20.6,20.6,0,0,0,1.269-3.061c-.2.307-.552.78-1.055,1.419A18.84,18.84,0,0,1,263.671,938.483Z" transform="translate(-190.692 -889.98)" fill="#fff"/>
        </g>
      </g>
    </g>
  </g>
</svg>
